HIERARCHY
ROOT Hips
{
	OFFSET 0.00000 0.00000 0.00000
	CHANNELS 6 Xposition Yposition Zposition Zrotation Yrotation Xrotation 
	JOINT LHipJoint
	{
		OFFSET 0 0 0
		CHANNELS 3 Zrotation Yrotation Xrotation
		JOINT LeftHip
		{
			OFFSET 1.84395 -1.68683 0.74144
			CHANNELS 3 Zrotation Yrotation Xrotation
			JOINT LeftKnee
			{
				OFFSET 2.27037 -6.23779 0.00000
				CHANNELS 3 Zrotation Yrotation Xrotation
				JOINT LeftAnkle
				{
					OFFSET 2.56918 -7.05877 0.00000
					CHANNELS 3 Zrotation Yrotation Xrotation
					JOINT LeftToe
					{
						OFFSET 0.22276 -0.61202 1.71784
						CHANNELS 3 Zrotation Yrotation Xrotation
						End Site
						{
							OFFSET 0.00000 -0.00000 0.91613
						}
					}
				}
			}
		}
	}
	JOINT RHipJoint
	{
		OFFSET 0 0 0
		CHANNELS 3 Zrotation Yrotation Xrotation
		JOINT RightHip
		{
			OFFSET -1.76833 -1.68684 0.74144
			CHANNELS 3 Zrotation Yrotation Xrotation
			JOINT RightKnee
			{
				OFFSET -2.49360 -6.85110 0.00000
				CHANNELS 3 Zrotation Yrotation Xrotation
				JOINT RightAnkle
				{
					OFFSET -2.55538 -7.02085 0.00000
					CHANNELS 3 Zrotation Yrotation Xrotation
					JOINT RightToe
					{
						OFFSET -0.21516 -0.59115 1.68050
						CHANNELS 3 Zrotation Yrotation Xrotation
						End Site
						{
							OFFSET -0.00000 -0.00000 0.89604
						}
					}
				}
			}
		}
	}
	JOINT lowerback
	{
		OFFSET 0 0 0
		CHANNELS 3 Zrotation Yrotation Xrotation
		JOINT Chest
		{
			OFFSET 0.06382 1.72312 -0.19613
			CHANNELS 3 Zrotation Yrotation Xrotation
			JOINT Chest2
			{
				OFFSET -0.00055 1.73507 0.23859
				CHANNELS 3 Zrotation Yrotation Xrotation
				JOINT lowerneck
				{
					OFFSET 0 0 0
					CHANNELS 3 Zrotation Yrotation Xrotation
					JOINT Neck
					{
						OFFSET 0.03638 1.65562 0.09633
						CHANNELS 3 Zrotation Yrotation Xrotation
						JOINT Head
						{
							OFFSET 0.06388 1.62807 -0.32386
							CHANNELS 3 Zrotation Yrotation Xrotation
							End Site
							{
								OFFSET 0.00995 1.67644 -0.12021
							}
						}
					}
				}
				JOINT LeftCollar
				{
					OFFSET 0 0 0
					CHANNELS 3 Zrotation Yrotation Xrotation
					JOINT LeftShoulder
					{
						OFFSET 3.09648 1.42991 0.28122
CHANNELS 3 Zrotation Xrotation Yrotation
						JOINT LeftElbow
						{
OFFSET 0 -5.118780 -0.000000
CHANNELS 3 Zrotation Xrotation Yrotation
							JOINT LeftWrist
							{
OFFSET 0 -3.599710 0.000000
CHANNELS 3 Zrotation Xrotation Yrotation
								JOINT lhand
								{
									OFFSET 0 0 0
CHANNELS 3 Zrotation Xrotation Yrotation
									JOINT LFingers
									{
OFFSET 0 -0.628770 0.000000
CHANNELS 3 Zrotation Xrotation Yrotation
										End Site
										{
OFFSET 0 -0.506930 0.000000
										}
									}
								}
								JOINT LThumb
								{
OFFSET 0 0.000000 0.000000
CHANNELS 3 Zrotation Xrotation Yrotation
									End Site
									{
OFFSET 0 -0.514670 0.514670
									}
								}
							}
						}
					}
				}
				JOINT RightCollar
				{
					OFFSET 0 0 0
					CHANNELS 3 Zrotation Yrotation Xrotation
					JOINT RightShoulder
					{
						OFFSET -3.33565 1.14597 0.05047
CHANNELS 3 Zrotation Xrotation Yrotation
						JOINT RightElbow
						{
OFFSET 0 -5.490200 0.000000
CHANNELS 3 Zrotation Xrotation Yrotation
							JOINT RightWrist
							{
OFFSET 0 -3.206590 -0.000000
CHANNELS 3 Zrotation Xrotation Yrotation
								JOINT rhand
								{
									OFFSET 0 0 0
CHANNELS 3 Zrotation Xrotation Yrotation
									JOINT RFingers
									{
OFFSET 0 -0.691880 0.000000
CHANNELS 3 Zrotation Xrotation Yrotation
										End Site
										{
OFFSET 0 -0.557810 0.000000
										}
									}
								}
								JOINT RThumb
								{
OFFSET 0 0.000000 0.000000
CHANNELS 3 Zrotation Xrotation Yrotation
									End Site
									{
OFFSET 0 -0.566330 0.566330
									}
								}
							}
						}
					}
				}
			}
		}
	}
}
MOTION
Frames: 11
Frame Time: 0.008333333333333333
0.755552 17.560838 8.936547 -8.839715 5.032470 12.445045 0.000000 0.000000 0.000000 -9.175827 -39.489950 10.183962 0.015449 -0.802671 -2.205995 -5.045244 37.299729 -26.511103 0.018605 -0.877610 -2.412197 0.000000 0.000000 0.000000 25.390119 26.072060 2.383388 -0.007900 -0.574081 1.577517 1.482849 -25.764175 -25.993097 -0.239382 -3.148483 8.692354 8.049219 3.618016 6.169073 1.405238 5.872952 -6.002157 -3.778471 2.378075 -9.239561 -3.650172 -8.841662 -12.600824 4.754156 -12.754003 23.035481 0.650869 -5.699453 9.941194 0.000000 0.000000 0.000000 2.318555 8.998282 -13.036435 91.667262 -59.989500 61.443760 28.003833 -54.169161 -15.799275 0.000000 0.000000 0.000000 -7.125000 0.000000 0.000000 0.298268 47.749155 -0.020155 0.000000 0.000000 0.000000 -13.385814 -60.145748 40.856912 -42.890453 -49.687825 -20.618479 30.313676 -50.307938 59.737101 0.000000 0.000000 0.000000 7.125000 0.000000 0.000000 101.688016 62.593205 -72.788371
0.762094 17.573552 8.901917 -8.956588 4.182600 12.449397 0.000000 0.000000 0.000000 -8.945790 -38.649489 9.828323 0.015026 -0.791175 -2.174492 -5.052098 37.304910 -26.452981 0.018160 -0.868177 -2.386175 0.000000 0.000000 0.000000 25.276148 25.913106 1.807095 -0.011357 -0.687539 1.889355 1.463407 -25.132792 -24.769522 -0.187727 -2.790457 7.695895 8.131180 3.324455 6.313415 1.533784 5.498980 -5.837150 -3.648071 2.199815 -9.192879 -3.409520 -8.698448 -11.673095 4.564920 -12.579037 23.081217 0.617683 -5.644035 9.743297 0.000000 0.000000 0.000000 1.732720 7.306776 -13.033923 91.314813 -59.993425 61.138688 27.951231 -53.898697 -15.095721 0.000000 0.000000 0.000000 -7.125000 0.000000 0.000000 0.342243 46.960127 -0.016575 0.000000 0.000000 0.000000 -0.596313 -63.639107 57.653739 -44.844360 -50.688962 -22.119128 30.782658 -52.813714 59.991608 0.000000 0.000000 0.000000 7.125000 0.000000 0.000000 102.327296 62.467097 -73.436943
0.756251 17.569855 8.851725 -9.156118 3.290556 12.240781 0.000000 0.000000 0.000000 -8.913650 -38.158976 9.964676 0.013423 -0.748877 -2.058040 -5.203337 37.739280 -26.771708 0.017948 -0.852382 -2.342865 0.000000 0.000000 0.000000 25.283690 25.398836 1.269409 -0.015304 -0.799463 2.197163 1.368609 -24.138084 -23.470818 -0.135252 -2.370392 6.530496 8.119167 3.499385 6.293137 1.611800 5.709510 -5.500611 -3.567617 2.333020 -8.791834 -3.019234 -8.736244 -12.281612 4.292014 -12.726970 24.200683 0.395313 -5.659036 10.219751 0.000000 0.000000 0.000000 1.379580 5.116053 -15.951436 88.949330 -59.995538 59.090097 28.571374 -53.439493 -15.414472 0.000000 0.000000 0.000000 -7.125000 0.000000 0.000000 0.898001 47.407457 -0.053476 0.000000 0.000000 0.000000 14.314731 -64.549965 71.795643 -28.383018 -39.446254 -10.373919 27.591364 -44.262979 61.268445 0.000000 0.000000 0.000000 7.125000 0.000000 0.000000 97.334003 34.618600 -34.983203
0.748715 17.570161 8.832677 -9.194702 2.682652 12.435818 0.000000 0.000000 0.000000 -9.495183 -39.489985 11.150061 0.017828 -0.862836 -2.371439 -5.646564 39.243041 -29.066346 0.001274 -0.223655 -0.614507 0.000000 0.000000 0.000000 25.076077 25.406536 0.757123 -0.018256 -0.872393 2.397799 1.212701 -23.268101 -23.175651 -0.169576 -2.652389 7.312393 7.557778 4.151735 5.470417 1.264349 6.433070 -5.722093 -3.644352 2.724406 -8.477921 -3.492414 -9.291497 -12.408402 6.009850 -13.889807 24.363230 0.882528 -6.025476 10.536611 0.000000 0.000000 0.000000 1.748944 3.284298 -20.981214 87.362820 -59.973664 57.716275 27.869580 -53.614249 -15.379458 0.000000 0.000000 0.000000 -7.125000 0.000000 0.000000 0.226569 47.263242 -0.013126 0.000000 0.000000 0.000000 10.272021 -61.714558 68.454422 -27.273318 -38.425041 -9.673853 27.859628 -45.550512 61.358464 0.000000 0.000000 0.000000 7.125000 0.000000 0.000000 84.147271 -27.654397 52.978444
0.770265 17.552248 8.838459 -8.761969 3.441810 11.646649 0.000000 0.000000 0.000000 -10.917460 -39.965745 12.361910 0.015730 -0.809572 -2.224938 -5.661505 39.207535 -28.744916 0.005721 -0.456471 -1.254435 0.000000 0.000000 0.000000 24.840421 24.500993 1.550119 -0.016654 -0.833669 2.291225 1.200075 -23.362199 -23.518597 -0.179606 -2.729157 7.525635 6.854760 3.732899 5.492984 1.234678 5.848498 -6.380263 -3.263931 2.431417 -9.341874 -3.099201 -8.977796 -12.728480 5.567116 -13.539185 25.583605 0.686039 -5.829476 10.966291 0.000000 0.000000 0.000000 1.620703 4.771210 -22.170553 88.926511 -59.995655 59.070371 27.105651 -53.627021 -15.392321 0.000000 0.000000 0.000000 -7.125000 0.000000 0.000000 -0.508644 47.164441 0.027063 0.000000 0.000000 0.000000 -0.892088 -57.413477 60.509405 -38.674708 -47.246456 -17.465186 28.820963 -50.087839 60.968065 0.000000 0.000000 0.000000 7.125000 0.000000 0.000000 103.356889 63.122495 -75.580165
0.771498 17.549140 8.948309 -9.008320 3.926307 10.949931 0.000000 0.000000 0.000000 -10.753239 -38.106075 12.586719 0.019690 -0.906391 -2.491395 -5.240807 37.797623 -26.613235 0.037440 -1.249376 -3.435268 0.000000 0.000000 0.000000 25.704554 23.820949 2.560142 -0.019979 -0.912484 2.507897 1.142204 -23.347314 -24.083109 -0.165447 -2.617472 7.215687 6.797957 2.996094 3.574856 1.394834 4.724105 -6.935016 -2.823899 1.904875 -8.946623 -3.105874 -8.102731 -14.486560 5.952698 -12.669782 28.193628 0.843989 -5.243858 12.317949 0.000000 0.000000 0.000000 1.917716 6.951782 -20.859791 89.684050 -59.999469 59.726416 27.763955 -53.548681 -15.012313 0.000000 0.000000 0.000000 -7.125000 0.000000 0.000000 0.173875 46.840215 -0.007880 0.000000 0.000000 0.000000 -9.927266 -51.084276 52.567328 -55.424532 -54.929861 -30.571149 28.063259 -53.092180 62.191897 0.000000 0.000000 0.000000 7.125000 0.000000 0.000000 78.286310 -63.817004 105.613833
0.787000 17.529539 9.044363 -8.835184 3.502990 9.900878 0.000000 0.000000 0.000000 -12.232905 -37.121276 14.344114 0.018243 -0.872346 -2.397762 -4.951480 37.166864 -26.982832 0.019923 -0.910399 -2.502244 0.000000 0.000000 0.000000 25.909254 22.349079 3.312297 -0.029705 -1.112890 3.059544 1.029941 -22.430739 -23.318593 -0.050966 -1.456688 4.006428 5.887069 2.565227 2.434742 1.709553 4.047183 -7.712584 -1.878930 1.630572 -9.269167 -2.974919 -7.562988 -14.874035 5.542832 -11.963439 29.668434 0.757785 -4.911566 12.916144 0.000000 0.000000 0.000000 1.019317 10.999688 -18.520358 91.922801 -59.985806 61.665136 27.700440 -54.103923 -15.534482 0.000000 0.000000 0.000000 -7.125000 0.000000 0.000000 0.042249 47.409648 -0.002471 0.000000 0.000000 0.000000 -16.565726 -40.072807 47.034724 -81.519657 -59.694564 -52.664438 29.894544 -57.864244 63.951293 0.000000 0.000000 0.000000 7.125000 0.000000 0.000000 82.350073 -64.176754 110.107318
0.811671 17.492316 9.132657 -9.338415 3.640043 9.010309 0.000000 0.000000 0.000000 -12.432520 -35.796954 15.598412 0.024636 -1.014193 -2.787797 -4.687208 36.317119 -26.152050 0.038067 -1.259537 -3.463235 0.000000 0.000000 0.000000 26.974630 21.331072 4.659328 -0.025461 -1.029014 2.828707 0.946347 -22.106320 -23.523691 -0.041728 -1.317964 3.624090 6.323006 1.895560 1.380253 2.061798 3.157238 -8.467678 -1.629298 1.158751 -9.555628 -2.651727 -6.946766 -14.811616 5.180861 -11.123230 30.338515 0.704688 -4.540597 13.085941 0.000000 0.000000 0.000000 -0.293401 15.089898 -15.612309 94.342077 -59.928602 63.759398 27.754436 -54.948657 -15.831291 0.000000 0.000000 0.000000 -7.125000 0.000000 0.000000 0.052498 47.746529 -0.003682 0.000000 0.000000 0.000000 -19.926156 -26.349393 45.126591 -109.643347 -58.462295 -76.921068 30.639351 -60.724332 64.169278 0.000000 0.000000 0.000000 7.125000 0.000000 0.000000 82.874603 -64.098858 110.837155
0.789067 17.480896 9.228404 -8.074745 3.547618 8.691464 0.000000 0.000000 0.000000 -14.028737 -35.049509 16.031159 0.023983 -0.999887 -2.748482 -4.458216 35.619195 -25.723997 0.057342 -1.544644 -4.248939 0.000000 0.000000 0.000000 26.231601 22.341192 6.261932 -0.020562 -0.926633 2.546941 1.007139 -23.120815 -24.944916 -0.089288 -1.927029 5.304116 4.802539 1.588113 -0.541376 1.665927 2.499441 -8.923285 -1.093906 0.947389 -8.988719 -2.860667 -6.717022 -14.328334 5.492412 -10.850599 30.356989 0.920135 -4.422015 13.013877 0.000000 0.000000 0.000000 -0.694501 17.287329 -14.341165 94.748746 -59.914592 64.111364 28.288366 -55.437801 -15.579972 0.000000 0.000000 0.000000 -7.125000 0.000000 0.000000 0.603218 47.548921 -0.037917 0.000000 0.000000 0.000000 -20.579563 -12.885212 44.010094 -127.575915 -53.918967 -91.875795 30.590074 -61.485312 64.845466 0.000000 0.000000 0.000000 7.125000 0.000000 0.000000 84.478843 -64.384441 112.352951
0.776063 17.461929 9.311091 -8.050723 4.611430 8.149461 0.000000 0.000000 0.000000 -14.283111 -34.779468 16.569649 0.023395 -0.987296 -2.713914 -4.236118 34.824282 -24.884278 0.103110 -2.064629 -5.684486 0.000000 0.000000 0.000000 26.998888 22.419416 7.853280 -0.014783 -0.784479 2.155901 1.048086 -24.060948 -26.406837 -0.162388 -2.596174 7.156409 4.515581 1.192295 -1.541509 1.847475 1.930801 -9.484456 -0.685537 0.692616 -9.068177 -2.604223 -6.669815 -13.892204 4.523379 -10.540137 30.334302 0.576079 -4.399896 12.806234 0.000000 0.000000 0.000000 -1.800030 18.599512 -13.918501 95.045740 -59.903556 64.368353 28.240109 -55.053515 -16.090968 0.000000 0.000000 0.000000 -7.125000 0.000000 0.000000 0.487068 48.109647 -0.037674 0.000000 0.000000 0.000000 -17.548901 1.893644 41.000332 -137.901859 -49.259311 -99.983429 31.042315 -60.060843 64.111396 0.000000 0.000000 0.000000 7.125000 0.000000 0.000000 82.749448 -63.982889 110.840661
0.764833 17.432676 9.344348 -8.346569 5.396393 8.032581 0.000000 0.000000 0.000000 -13.573844 -34.550462 16.031202 0.019161 -0.893252 -2.455032 -3.966069 33.945897 -24.425694 0.128380 -2.305392 -6.350660 0.000000 0.000000 0.000000 27.139719 21.260907 7.077240 -0.024792 -1.016112 2.793118 0.936470 -23.460898 -26.245016 -0.121476 -2.246751 6.188094 4.817714 0.868415 -1.781838 2.092881 1.553940 -10.331390 -0.560911 0.472652 -9.903465 -3.999899 -6.889198 -13.919259 5.470828 -10.837322 30.631014 1.114854 -4.559039 13.112341 0.000000 0.000000 0.000000 -2.851549 19.969994 -13.699847 95.792187 -59.872833 65.014023 28.333223 -55.044896 -16.031929 0.000000 0.000000 0.000000 -7.125000 0.000000 0.000000 0.585767 48.058541 -0.044170 0.000000 0.000000 0.000000 -11.548248 15.806241 36.179009 -142.646859 -46.421127 -103.504626 31.757215 -59.135914 63.030832 0.000000 0.000000 0.000000 7.125000 0.000000 0.000000 80.292206 -63.331253 108.720188
